<svg width="48" height="48" viewBox="0 0 48 48" fill="none" xmlns="http://www.w3.org/2000/svg">
<g clip-path="url(#clip0_2693_2462)">
<path d="M8.22461 34.0845L9.26711 31.701C11.826 32.6013 14.462 33.2651 17.1421 33.684V37.02C14.0594 36.415 11.0639 35.4289 8.22461 34.0845ZM20.5711 32.5215H27.4306V39.378H20.5711V32.5215ZM30.8566 33.669C33.5384 33.2566 36.1765 32.5984 38.7376 31.7025L39.7771 34.0815C36.937 35.424 33.9403 36.4066 30.8566 37.0065V33.669ZM20.6131 5.733L20.8861 5.05799C21.481 3.57952 22.5044 2.31275 23.8249 1.4205C25.1453 0.528251 26.7025 0.0513138 28.2961 0.0509949H29.3971C31.7491 0.0509949 33.9001 1.371 34.9666 3.4665C35.4779 4.47162 36.2572 5.31568 37.2185 5.90525C38.1798 6.49483 39.2854 6.80692 40.4131 6.807H41.1421L39.9211 8.4375C39.5477 8.93601 39.0446 9.32246 38.4667 9.55469C37.8887 9.78692 37.2581 9.85604 36.6436 9.75449L31.6786 8.9385C31.3745 8.88495 31.0615 8.91611 30.7739 9.02855C30.4864 9.14099 30.2353 9.33038 30.0481 9.57599C29.8582 9.81938 29.7376 10.1096 29.6993 10.416C29.6611 10.7223 29.7064 11.0333 29.8306 11.316L36.5611 26.721C37.0006 27.726 36.4351 28.869 35.3821 29.172C33.8911 29.601 32.4061 29.9385 30.9121 30.1905C30.6653 30.2289 30.4133 30.2153 30.1721 30.1507C29.9308 30.0862 29.7057 29.972 29.5111 29.8155C28.9175 29.3474 28.1836 29.0927 27.4276 29.0925H20.5726C19.7806 29.0925 19.0576 29.367 18.4801 29.8215C18.0811 30.1365 17.5726 30.285 17.0701 30.1995C15.5671 29.9418 14.0797 29.5998 12.6151 29.175C12.3671 29.106 12.1367 28.9848 11.9394 28.8194C11.7421 28.6541 11.5824 28.4484 11.4712 28.2162C11.36 27.9841 11.2997 27.7308 11.2944 27.4734C11.2891 27.216 11.339 26.9605 11.4406 26.724L20.6131 5.733Z" fill="white"/>
<path d="M24 47.949C9.3495 47.949 0 43.8885 0 41.094C0 40.0365 1.62 38.3145 6.009 36.789C9.59077 38.5799 13.4137 39.8411 17.358 40.533C17.5947 41.1965 18.0301 41.7708 18.6051 42.1778C19.1801 42.5847 19.8666 42.8044 20.571 42.807H27.429C28.9185 42.807 30.177 41.8455 30.648 40.515C34.589 39.8306 38.4091 38.5754 41.988 36.789C46.38 38.313 48 40.0365 48 41.0925C48 43.8885 38.6505 47.949 24 47.949Z" fill="white"/>
</g>
<defs>
<clipPath id="clip0_2693_2462">
<rect width="48" height="48" fill="white"/>
</clipPath>
</defs>
</svg>
