<svg width="37" height="37" viewBox="0 0 37 37" fill="none" xmlns="http://www.w3.org/2000/svg">
<g clip-path="url(#clip0_2489_17008)">
<path d="M24.2593 13.514C25.0281 12.8944 25.0044 11.5719 24.2002 10.571C23.396 9.57019 22.1246 9.26636 21.3558 9.89189C20.5871 10.5174 20.6167 11.834 21.4209 12.8349C22.2251 13.8357 23.4906 14.1396 24.2593 13.514Z" fill="white"/>
<path d="M17.9971 4C10.2683 4 4.00012 10.2672 4.00012 18C4.00012 25.7328 10.2683 32 17.9971 32C25.726 32 32.0001 25.7328 32.0001 18C32.0001 10.2672 25.7319 4 17.9971 4ZM8.70128 27.2519L8.9319 27.4723C12.1606 25.4349 20.6996 14.6996 21.2968 13.943C21.1008 13.7671 20.9189 13.5759 20.7528 13.3711C20.2029 12.68 19.8954 11.8877 19.8481 11.143L19.8362 11.1549C11.5574 9.28425 5.93971 13.4068 5.93971 13.4068L5.63812 13.6034C5.48784 14.0253 5.35954 14.4548 5.25375 14.8902C6.64931 9.14724 11.8235 4.88171 17.9971 4.88171H17.9913C20.2738 6.49022 20.9657 8.10468 21.1549 8.73021C22.2903 8.2417 23.8396 8.74809 24.8626 10.0349C24.9454 10.1362 25.0223 10.2434 25.0992 10.3506H25.0932C25.0932 10.3506 25.0578 8.58128 27.0033 8.76L27.3403 8.79574C29.5766 11.0576 30.9107 14.068 31.0895 17.2553C30.8056 16.7787 28.4402 12.9838 25.7792 12.5191C25.7674 13.2638 25.4954 13.943 24.9513 14.3838C24.8674 14.4521 24.7785 14.5139 24.6852 14.5685C26.2641 21.366 23.3961 28.3123 22.444 30.3379L22.6451 30.2664C20.278 31.1591 17.7065 31.3496 15.2352 30.8154C12.7639 30.2811 10.4964 29.0445 8.70128 27.2519ZM4.89894 17.3685C4.89894 17.3268 4.90486 17.2851 4.90486 17.2434C4.90486 17.2017 4.89894 17.3268 4.89894 17.3685ZM31.0776 18.9472C31.0776 18.977 31.0717 19.0009 31.0717 19.0306C31.0717 19.0604 31.0776 18.977 31.0776 18.9472ZM31.0481 19.3285C31.0421 19.3464 31.0421 19.3702 31.0362 19.3881C31.0303 19.406 31.0421 19.3464 31.0481 19.3285ZM30.9121 20.2757C30.9121 20.2936 30.9061 20.3115 30.9061 20.3294C30.9061 20.3472 30.9121 20.2936 30.9121 20.2757ZM30.7879 20.9132C30.782 20.9489 30.7701 20.9787 30.7642 21.0145C30.7583 21.0502 30.782 20.9489 30.7879 20.9132ZM30.6164 21.5864C30.6105 21.5983 30.6105 21.6102 30.6046 21.6221C30.5986 21.634 30.6105 21.5983 30.6164 21.5864ZM29.5579 24.1957C29.5401 24.2315 29.5165 24.2672 29.4987 24.3089C29.481 24.3506 29.5401 24.2315 29.5579 24.1957ZM27.2398 27.3055C27.2753 27.2638 27.3167 27.2281 27.3581 27.1864C27.3995 27.1447 27.2753 27.2638 27.2398 27.3055Z" fill="white"/>
</g>
<defs>
<clipPath id="clip0_2489_17008">
<rect width="28" height="28" fill="white" transform="translate(4 4)"/>
</clipPath>
</defs>
</svg>
