<svg xmlns="http://www.w3.org/2000/svg" width="20" height="20" fill="none" viewBox="0 0 20 20">
  <g clip-path="url(#a)">
    <path fill="url(#b)" d="M4.365 6.753 0 7.318v5.364l4.365.565V6.753Z"/>
    <path fill="url(#c)" d="M4.365 6.753v6.494L10 16.506l5.635-3.259V6.753L10 3.494 4.365 6.753Z"/>
    <path fill="url(#d)" d="m15.635 6.753 1.683-4.07L12.682 0 10 3.494l5.635 3.259Z"/>
    <path fill="url(#e)" d="m15.635 6.753 1.683-4.07L20 7.317l-4.365-.565Z"/>
    <path fill="url(#f)" d="M15.635 6.753v6.494L20 12.682V7.318l-4.365-.565Z"/>
    <path fill="url(#g)" d="M15.635 13.247 10 16.506 12.682 20l4.636-2.682-1.683-4.07Z"/>
    <path fill="url(#h)" d="M15.635 13.247 20 12.682l-2.682 4.636-1.683-4.07Z"/>
    <path fill="url(#i)" d="m4.365 13.247-1.683 4.07L7.318 20 10 16.506l-5.635-3.259Z"/>
    <path fill="url(#j)" d="M10 16.506 7.318 20h5.364L10 16.506Z"/>
    <path fill="url(#k)" d="M4.365 13.247 0 12.682l2.682 4.636 1.683-4.07Z"/>
    <path fill="url(#l)" d="m2.682 2.682 1.683 4.07L10 3.495 7.318 0 2.682 2.682Z"/>
    <path fill="url(#m)" d="M7.318 0 10 3.494 12.682 0H7.318Z"/>
    <path fill="url(#n)" d="m0 7.318 4.365-.565-1.683-4.07L0 7.317Z"/>
  </g>
  <defs>
    <linearGradient id="b" x1="3.647" x2="1.353" y1="5.106" y2="13.235" gradientUnits="userSpaceOnUse">
      <stop stop-color="#DEE3E6"/>
      <stop offset=".25" stop-color="#BCBEC0"/>
      <stop offset=".49" stop-color="#CDCFD0"/>
      <stop offset=".54" stop-color="#D1D3D4"/>
      <stop offset=".81" stop-color="#EDEDEE"/>
    </linearGradient>
    <linearGradient id="c" x1="1" x2="11.5" y1="37" y2="3" gradientUnits="userSpaceOnUse">
      <stop stop-color="#DEE3E6"/>
      <stop offset=".26" stop-color="#D1D3D4"/>
      <stop offset=".56" stop-color="#D1D3D4"/>
      <stop offset=".81" stop-color="#EDEDEE"/>
    </linearGradient>
    <linearGradient id="d" x1="19" x2="13" y1="16" y2="-1.5" gradientUnits="userSpaceOnUse">
      <stop stop-color="#DEE3E6"/>
      <stop offset=".26" stop-color="#D1D3D4"/>
      <stop offset=".427" stop-color="#BFC1C3"/>
      <stop offset=".526" stop-color="#BCBEC0"/>
      <stop offset=".797" stop-color="#E2E3E4"/>
      <stop offset=".923" stop-color="#F1F2F2"/>
    </linearGradient>
    <linearGradient id="e" x1="20.5" x2="15.5" y1="12.5" y2="1.5" gradientUnits="userSpaceOnUse">
      <stop stop-color="#DEE3E6"/>
      <stop offset=".13" stop-color="#D1D3D4"/>
      <stop offset=".251" stop-color="#BCBEC0"/>
      <stop offset=".503" stop-color="#C4C6C7"/>
      <stop offset=".67" stop-color="#E1E2E3"/>
      <stop offset=".897" stop-color="#EDEDEE"/>
    </linearGradient>
    <linearGradient id="f" x1="8.003" x2="23.997" y1="20.569" y2="5.431" gradientUnits="userSpaceOnUse">
      <stop stop-color="#DEE3E6"/>
      <stop offset=".18" stop-color="#D1D3D4"/>
      <stop offset=".28" stop-color="#C2C4C5"/>
      <stop offset=".36" stop-color="#BCBEC0"/>
      <stop offset=".499" stop-color="#C3C5C7"/>
      <stop offset=".627" stop-color="#D8DADB"/>
      <stop offset=".791" stop-color="#F1F2F2"/>
    </linearGradient>
    <linearGradient id="g" x1="6" x2="20.5" y1="26" y2="11.5" gradientUnits="userSpaceOnUse">
      <stop stop-color="#DEE3E6"/>
      <stop offset=".26" stop-color="#D1D3D4"/>
      <stop offset=".5" stop-color="#BFC1C3"/>
      <stop offset=".54" stop-color="#BCBEC0"/>
      <stop offset=".62" stop-color="#C4C6C8"/>
      <stop offset=".75" stop-color="#DCDDDE"/>
      <stop offset=".83" stop-color="#EDEDEE"/>
    </linearGradient>
    <linearGradient id="h" x1="11.376" x2="20.435" y1="20.188" y2="11.482" gradientUnits="userSpaceOnUse">
      <stop stop-color="#DEE3E6"/>
      <stop offset=".26" stop-color="#D1D3D4"/>
      <stop offset=".49" stop-color="#BFC1C3"/>
      <stop offset=".54" stop-color="#BCBEC0"/>
      <stop offset=".88" stop-color="#EDEDEE"/>
    </linearGradient>
    <linearGradient id="i" x1="5" x2="8" y1="6.5" y2="22" gradientUnits="userSpaceOnUse">
      <stop stop-color="#DEE3E6"/>
      <stop offset=".17" stop-color="#D1D3D4"/>
      <stop offset=".49" stop-color="#BCBEC0"/>
      <stop offset=".59" stop-color="#C0C2C4"/>
      <stop offset=".7" stop-color="#CECFD1"/>
      <stop offset=".82" stop-color="#E5E5E7"/>
      <stop offset=".85" stop-color="#EDEDEE"/>
    </linearGradient>
    <linearGradient id="j" x1="2.094" x2="14.506" y1="20.306" y2="17.541" gradientUnits="userSpaceOnUse">
      <stop stop-color="#DEE3E6"/>
      <stop offset=".26" stop-color="#D1D3D4"/>
      <stop offset=".56" stop-color="#D1D3D4"/>
      <stop offset=".81" stop-color="#EDEDEE"/>
    </linearGradient>
    <linearGradient id="k" x1=".259" x2="3.729" y1="9.165" y2="15.988" gradientUnits="userSpaceOnUse">
      <stop stop-color="#DEE3E6"/>
      <stop offset=".26" stop-color="#D1D3D4"/>
      <stop offset=".47" stop-color="#BFC1C3"/>
      <stop offset=".51" stop-color="#BCBEC0"/>
      <stop offset=".61" stop-color="#C2C4C5"/>
      <stop offset=".74" stop-color="#D4D5D6"/>
      <stop offset=".87" stop-color="#EDEDEE"/>
    </linearGradient>
    <linearGradient id="l" x1="21.5" x2="-1" y1="2.5" y2="1.5" gradientUnits="userSpaceOnUse">
      <stop stop-color="#DEE3E6"/>
      <stop offset=".26" stop-color="#D1D3D4"/>
      <stop offset=".45" stop-color="#BFC1C3"/>
      <stop offset=".49" stop-color="#BCBEC0"/>
      <stop offset=".85" stop-color="#F1F2F2"/>
    </linearGradient>
    <linearGradient id="m" x1="19.047" x2="7.765" y1="1.953" y2="1.659" gradientUnits="userSpaceOnUse">
      <stop stop-color="#DEE3E6"/>
      <stop offset=".26" stop-color="#D1D3D4"/>
      <stop offset=".51" stop-color="#BFC1C3"/>
      <stop offset=".56" stop-color="#BCBEC0"/>
      <stop offset=".84" stop-color="#F1F2F2"/>
    </linearGradient>
    <linearGradient id="n" x1="11.282" x2="-.482" y1="5.106" y2="4.988" gradientUnits="userSpaceOnUse">
      <stop stop-color="#DEE3E6"/>
      <stop offset=".26" stop-color="#D1D3D4"/>
      <stop offset=".51" stop-color="#BFC1C3"/>
      <stop offset=".56" stop-color="#BCBEC0"/>
      <stop offset=".84" stop-color="#EDEDEE"/>
    </linearGradient>
    <clipPath id="a">
      <path fill="#fff" d="M0 0h20v20H0z"/>
    </clipPath>
  </defs>
</svg>
