<svg xmlns="http://www.w3.org/2000/svg" width="16" height="16" fill="none"><path fill="#EA973D" d="M15.761 9.935a7.998 7.998 0 1 1-15.52-3.87 7.998 7.998 0 0 1 15.52 3.87Z"/><path fill="#fff" fill-rule="evenodd" d="M11.411 6.81c.15-1.002-.613-1.54-1.656-1.9l.338-1.357-.826-.206-.33 1.321a34.11 34.11 0 0 0-.661-.155l.332-1.33-.826-.206-.338 1.356c-.18-.04-.357-.081-.528-.124l.001-.004-1.14-.284-.22.882s.614.14.6.15c.335.083.396.304.386.48l-.386 1.546a.683.683 0 0 1 .086.027l-.087-.021-.54 2.166c-.041.101-.145.254-.379.196.008.012-.6-.15-.6-.15l-.41.946 1.075.268c.121.03.241.062.36.093l.229.059-.342 1.373.825.206.339-1.358c.225.06.444.117.658.17l-.338 1.352.827.206.341-1.37c1.41.267 2.469.159 2.914-1.115.36-1.026-.018-1.618-.759-2.004.54-.125.947-.48 1.055-1.213ZM7.143 9.83l-.16-.041.453-1.819c.056.014.125.03.203.047.697.157 2.126.477 1.887 1.44-.235.941-1.71.551-2.383.373Zm.631-2.657c.563.15 1.788.477 2.002-.378.218-.875-.974-1.139-1.556-1.268a4.857 4.857 0 0 1-.17-.039l-.411 1.65.135.035Z" clip-rule="evenodd"/></svg>