<svg width="16" height="16" viewBox="0 0 16 16" fill="none" xmlns="http://www.w3.org/2000/svg">
<path d="M8 16C12.4183 16 16 12.4183 16 8C16 3.58172 12.4183 0 8 0C3.58172 0 0 3.58172 0 8C0 12.4183 3.58172 16 8 16Z" fill="#988430"/>
<path d="M8.00009 15.7438C12.2768 15.7438 15.7438 12.2768 15.7438 8.00009C15.7438 3.72334 12.2768 0.256348 8.00009 0.256348C3.72334 0.256348 0.256348 3.72334 0.256348 8.00009C0.256348 12.2768 3.72334 15.7438 8.00009 15.7438Z" fill="#7A6A2A"/>
<path d="M8.00002 15.5806C12.1867 15.5806 15.5806 12.1867 15.5806 8.00002C15.5806 3.81338 12.1867 0.419434 8.00002 0.419434C3.81338 0.419434 0.419434 3.81338 0.419434 8.00002C0.419434 12.1867 3.81338 15.5806 8.00002 15.5806Z" fill="#BA9F33"/>
<path fill-rule="evenodd" clip-rule="evenodd" d="M12.5153 6.03228C11.7063 3.94298 9.70624 3.55591 9.70624 3.55591H4.00009L4.0221 5.68404H5.15849V10.4362H4V12.5605H9.54829C10.8855 12.5605 11.9573 11.2167 11.9573 11.2167C13.6738 8.78053 12.5152 6.03228 12.5152 6.03228H12.5153ZM9.57807 9.78498C9.57807 9.78498 9.14287 10.4129 8.66935 10.4129H7.72215L7.69971 5.68924H8.91529C8.91529 5.68924 9.47849 5.807 9.87196 6.92154C9.87196 6.92154 10.3936 8.51727 9.57807 9.78498Z" fill="white" fill-opacity="0.75"/>
</svg>
