<svg xmlns="http://www.w3.org/2000/svg" width="16" height="16" fill="none"><path fill="#6680E3" d="M15.957 8A7.958 7.958 0 1 1 .04 8a7.958 7.958 0 0 1 15.916 0Z"/><path fill="#ECF0F1" d="m7.974 2.995-.066.225v6.514l.066.066 3.024-1.788-3.024-5.017Z"/><path fill="#ECF0F1" d="M7.975 2.995 4.951 8.012 7.975 9.8V2.995Zm0 7.789-.037.045v2.32l.037.11L11 8.996l-3.025 1.787Z"/><path fill="#ECF0F1" d="M7.975 13.258v-2.474L4.951 8.997l3.024 4.261ZM7.973 9.8l3.023-1.787-3.023-1.375V9.8Z"/><path fill="#ECF0F1" d="M4.951 8.013 7.975 9.8V6.638L4.95 8.013Z"/></svg>