<svg xmlns="http://www.w3.org/2000/svg" width="16" height="16" fill="none"><path fill="#FF060A" d="M15.916 7.958A7.958 7.958 0 1 1 0 7.958a7.958 7.958 0 0 1 15.916 0Z"/><path fill="#fff" d="M12.633 6.362c-.422-.411-1.005-1.04-1.48-1.484l-.028-.021a.53.53 0 0 0-.156-.092C9.823 4.539 4.492 3.487 4.388 3.5a.19.19 0 0 0-.082.033l-.027.022a.334.334 0 0 0-.073.125l-.007.019v.122c.6 1.765 2.97 7.546 3.437 8.903.028.092.081.267.181.276h.023c.053 0 .28-.318.28-.318s4.072-5.213 4.483-5.768c.054-.068.1-.142.141-.22a.377.377 0 0 0-.111-.332Zm-3.468.607 1.738-1.521 1.019.991-2.757.53Zm-.674-.1L5.499 4.282l4.84.942L8.491 6.87Zm.27.679 3.06-.521-3.5 4.453.44-3.932ZM5.092 4.539 8.24 7.36l-.455 4.124L5.093 4.54Z"/></svg>