<?xml version="1.0" encoding="UTF-8" standalone="no"?>
<svg
   width="17.999969"
   height="17.999985"
   viewBox="0 0 17.999969 17.999985"
   fill="none"
   version="1.1"
   id="svg3"
   xmlns="http://www.w3.org/2000/svg"
   xmlns:svg="http://www.w3.org/2000/svg">
  <defs
     id="defs3" />
  <mask
     id="mask0_6319_18786"
     maskUnits="userSpaceOnUse"
     x="0"
     y="0"
     width="19"
     height="19">
    <path
       d="M 18.832,0.291016 H 0.832031 V 18.291 H 18.832 Z"
       fill="#ffffff"
       id="path1" />
  </mask>
  <path
     d="m 8.999999,17.999984 c 4.97057,0 8.99997,-4.0294 8.99997,-8.99998 C 17.999969,4.029444 13.970569,0 8.999999,0 4.029439,0 0,4.029444 0,9.000004 c 0,4.97058 4.029439,8.99998 8.999999,8.99998 z"
     fill="#ffb300"
     id="path2" />
  <path
     d="M 8.714219,15.255284 V 3.035314 h 1.06605 v 12.21997 z m 0.403,-1.43 c -0.71067,0 -1.391,-0.0996 -2.041,-0.299 -0.65,-0.208 -1.16567,-0.4723 -1.547,-0.793 l 0.585,-1.313 c 0.364,0.286 0.81467,0.5244 1.352,0.715 0.53733,0.1907 1.08767,0.286 1.651,0.286 0.47665,0 0.86235,-0.052 1.15705,-0.156 0.2946,-0.104 0.5113,-0.2426 0.65,-0.416 0.1386,-0.182 0.208,-0.3856 0.208,-0.611 0,-0.2773 -0.0997,-0.4983 -0.299,-0.663 -0.1994,-0.1733 -0.4594,-0.3076 -0.78,-0.403 -0.312,-0.104 -0.663,-0.1993 -1.05305,-0.286 -0.38133,-0.0866 -0.767,-0.18631 -1.157,-0.29897 -0.38133,-0.12134 -0.73233,-0.273 -1.053,-0.455 -0.312,-0.19067 -0.56767,-0.442 -0.767,-0.754 -0.19933,-0.312 -0.299,-0.71067 -0.299,-1.196 0,-0.494 0.13,-0.94467 0.39,-1.352 0.26867,-0.416 0.67167,-0.74534 1.209,-0.988 0.546,-0.25134 1.235,-0.377 2.06705,-0.377 0.546,0 1.0876,0.06933 1.625,0.208 0.5373,0.13866 1.0053,0.338 1.4039,0.598 l -0.5329,1.313 c -0.4074,-0.24267 -0.8277,-0.42034 -1.261,-0.533 -0.4334,-0.12134 -0.8494,-0.182 -1.248,-0.182 -0.46805,0 -0.84938,0.05633 -1.14405,0.169 -0.286,0.11266 -0.49833,0.26 -0.637,0.442 -0.13,0.182 -0.195,0.39 -0.195,0.624 0,0.27733 0.09533,0.50266 0.286,0.676 0.19933,0.16466 0.455,0.29466 0.767,0.39 0.32067,0.09533 0.676,0.19066 1.06605,0.286 0.39,0.08666 0.7756,0.18633 1.157,0.299 0.39,0.11266 0.741,0.26 1.053,0.442 0.3206,0.182 0.5763,0.429 0.767,0.74097 0.1993,0.312 0.299,0.7064 0.299,1.183 0,0.4854 -0.1344,0.936 -0.403,1.352 -0.26,0.4074 -0.663,0.7367 -1.209,0.988 -0.546,0.2427 -1.235,0.364 -2.06705,0.364 z"
     fill="#a95100"
     id="path3" />
</svg>
