<svg xmlns="http://www.w3.org/2000/svg" width="16" height="16" fill="none"><path fill="#3C75C4" d="M15.957 8A7.958 7.958 0 1 1 .04 8a7.958 7.958 0 0 1 15.916 0Z"/><path fill="#fff" d="M9.89 9.083c0-1.023-.614-1.374-1.843-1.52-.877-.117-1.053-.351-1.053-.76 0-.41.293-.673.878-.673.526 0 .819.175.965.614a.22.22 0 0 0 .205.146h.467a.2.2 0 0 0 .205-.205v-.029a1.461 1.461 0 0 0-1.316-1.2v-.701c0-.117-.088-.205-.234-.234h-.439c-.117 0-.204.088-.234.234v.673c-.877.117-1.433.702-1.433 1.433 0 .965.585 1.345 1.814 1.491.819.147 1.082.322 1.082.79s-.41.79-.965.79c-.76 0-1.024-.322-1.112-.76-.029-.118-.117-.176-.204-.176h-.498a.2.2 0 0 0-.204.204v.03c.117.73.585 1.257 1.55 1.403v.702c0 .117.087.205.234.234h.438c.117 0 .205-.087.234-.234v-.702c.878-.146 1.463-.76 1.463-1.55Z"/><path fill="#fff" d="M6.469 12.154c-2.282-.819-3.451-3.363-2.603-5.615a4.326 4.326 0 0 1 2.603-2.603c.117-.059.175-.146.175-.293v-.409c0-.117-.058-.205-.175-.234-.03 0-.088 0-.117.03A5.254 5.254 0 0 0 2.93 9.638a5.261 5.261 0 0 0 3.422 3.422c.117.058.234 0 .263-.117.03-.03.03-.059.03-.117v-.41c0-.088-.089-.204-.176-.263Zm3.1-9.125c-.117-.058-.234 0-.263.117-.03.03-.03.059-.03.117v.41c0 .117.088.234.176.292 2.281.819 3.45 3.363 2.603 5.615a4.326 4.326 0 0 1-2.603 2.603c-.117.059-.176.146-.176.293v.41c0 .116.059.204.176.233.03 0 .088 0 .117-.029a5.254 5.254 0 0 0 3.422-6.61 5.304 5.304 0 0 0-3.422-3.45Z"/></svg>