<svg width="16" height="16" viewBox="0 0 16 16" fill="none" xmlns="http://www.w3.org/2000/svg">
<path d="M15.9156 7.9578C15.9156 12.3528 12.3528 15.9157 7.95785 15.9157C3.56283 15.9157 0 12.3528 0 7.9578C0 3.56283 3.56283 0 7.95785 0C12.3528 0 15.9156 3.56283 15.9156 7.9578Z" fill="#393939"/>
<path d="M5.17077 4.65576H4.01449L6.4208 7.03752C7.29223 7.8996 8.70508 7.8996 9.57713 7.03752L11.9844 4.65576H10.8272L8.99899 6.46505C8.73263 6.72748 8.37366 6.8746 7.99967 6.8746C7.62568 6.8746 7.26671 6.72748 7.00035 6.46505L5.17077 4.65576Z" fill="white"/>
<path d="M10.8429 11.2788H12L9.57806 8.8824C8.70664 8.02032 7.29379 8.02032 6.42174 8.8824L3.9998 11.2788H5.15608L6.99988 9.45488C7.26624 9.19244 7.62521 9.04533 7.9992 9.04533C8.37319 9.04533 8.73216 9.19244 8.99852 9.45488L10.8429 11.2788Z" fill="white"/>
</svg>
